<mxfile host="65bd71144e">
    <diagram id="Omz8NuV_Lej0NusEcTPA" name="Page-1">
        <mxGraphModel dx="1099" dy="741" grid="1" gridSize="10" guides="1" tooltips="1" connect="1" arrows="1" fold="1" page="1" pageScale="1" pageWidth="827" pageHeight="1169" math="0" shadow="0">
            <root>
                <mxCell id="0"/>
                <mxCell id="1" parent="0"/>
                <mxCell id="71" style="edgeStyle=none;shape=connector;rounded=1;html=1;exitX=1;exitY=0.5;exitDx=0;exitDy=0;entryX=0.7;entryY=1;entryDx=0;entryDy=0;entryPerimeter=0;labelBackgroundColor=default;fontFamily=Helvetica;fontSize=11;fontColor=default;endArrow=none;endFill=0;strokeColor=default;" parent="1" source="2" target="28" edge="1">
                    <mxGeometry relative="1" as="geometry">
                        <Array as="points">
                            <mxPoint x="630" y="410"/>
                        </Array>
                    </mxGeometry>
                </mxCell>
                <mxCell id="2" value="" style="pointerEvents=1;verticalLabelPosition=bottom;shadow=0;dashed=0;align=center;html=1;verticalAlign=top;shape=mxgraph.electrical.miscellaneous.batteryStack;direction=south;" parent="1" vertex="1">
                    <mxGeometry x="600" y="200" width="60" height="100" as="geometry"/>
                </mxCell>
                <mxCell id="61" style="html=1;exitX=1;exitY=0.5;exitDx=0;exitDy=0;exitPerimeter=0;entryX=0;entryY=0.57;entryDx=0;entryDy=0;entryPerimeter=0;endArrow=none;endFill=0;" parent="1" source="3" target="4" edge="1">
                    <mxGeometry relative="1" as="geometry"/>
                </mxCell>
                <mxCell id="70" style="edgeStyle=none;shape=connector;rounded=1;html=1;exitX=0;exitY=0.5;exitDx=0;exitDy=0;exitPerimeter=0;entryX=0;entryY=0.5;entryDx=0;entryDy=0;labelBackgroundColor=default;fontFamily=Helvetica;fontSize=11;fontColor=default;endArrow=none;endFill=0;strokeColor=default;" parent="1" source="3" target="2" edge="1">
                    <mxGeometry relative="1" as="geometry"/>
                </mxCell>
                <mxCell id="3" value="" style="pointerEvents=1;verticalLabelPosition=bottom;shadow=0;dashed=0;align=center;html=1;verticalAlign=top;shape=mxgraph.electrical.resistors.resistor_2;direction=south;" parent="1" vertex="1">
                    <mxGeometry x="100" y="204" width="20" height="96" as="geometry"/>
                </mxCell>
                <mxCell id="64" style="edgeStyle=none;shape=connector;rounded=1;html=1;exitX=1;exitY=0.57;exitDx=0;exitDy=0;exitPerimeter=0;entryX=0.7;entryY=1;entryDx=0;entryDy=0;entryPerimeter=0;labelBackgroundColor=default;fontFamily=Helvetica;fontSize=11;fontColor=default;endArrow=none;endFill=0;strokeColor=default;" parent="1" source="4" target="28" edge="1">
                    <mxGeometry relative="1" as="geometry">
                        <Array as="points"/>
                    </mxGeometry>
                </mxCell>
                <mxCell id="4" value="" style="verticalLabelPosition=bottom;shadow=0;dashed=0;align=center;html=1;verticalAlign=top;shape=mxgraph.electrical.opto_electronics.led_2;pointerEvents=1;direction=south;flipV=0;flipH=1;" parent="1" vertex="1">
                    <mxGeometry x="70" y="310" width="70" height="100" as="geometry"/>
                </mxCell>
                <mxCell id="8" value="5 V" style="text;html=1;align=center;verticalAlign=middle;resizable=0;points=[];autosize=1;strokeColor=none;fillColor=none;fontSize=11;fontFamily=Helvetica;fontColor=default;" parent="1" vertex="1">
                    <mxGeometry x="660" y="230" width="30" height="20" as="geometry"/>
                </mxCell>
                <mxCell id="9" value="220&amp;nbsp;&amp;nbsp;Ω" style="text;html=1;align=center;verticalAlign=middle;resizable=0;points=[];autosize=1;strokeColor=none;fillColor=none;fontSize=11;fontFamily=Helvetica;fontColor=default;" parent="1" vertex="1">
                    <mxGeometry x="50" y="237" width="50" height="20" as="geometry"/>
                </mxCell>
                <mxCell id="10" value="Output" style="text;html=1;align=center;verticalAlign=middle;resizable=0;points=[];autosize=1;strokeColor=none;fillColor=none;fontSize=11;fontFamily=Helvetica;fontColor=default;" parent="1" vertex="1">
                    <mxGeometry x="30" y="340" width="50" height="20" as="geometry"/>
                </mxCell>
                <mxCell id="11" value="&lt;font style=&quot;font-size: 14px&quot;&gt;Nina Mathew&lt;br&gt;TEJ3M Unit #4-07&lt;br&gt;NOT Gate with Transistor&lt;br&gt;&lt;/font&gt;" style="text;html=1;align=center;verticalAlign=middle;resizable=0;points=[];autosize=1;strokeColor=none;fillColor=none;fontSize=11;fontFamily=Helvetica;fontColor=default;" parent="1" vertex="1">
                    <mxGeometry x="50" y="70" width="180" height="50" as="geometry"/>
                </mxCell>
                <mxCell id="38" style="edgeStyle=none;shape=connector;rounded=1;html=1;exitX=1;exitY=0.115;exitDx=0;exitDy=0;exitPerimeter=0;labelBackgroundColor=default;fontFamily=Helvetica;fontSize=11;fontColor=default;endArrow=none;endFill=0;strokeColor=default;" parent="1" source="12" edge="1">
                    <mxGeometry relative="1" as="geometry">
                        <mxPoint x="535" y="200" as="targetPoint"/>
                    </mxGeometry>
                </mxCell>
                <mxCell id="72" style="edgeStyle=none;shape=connector;rounded=1;html=1;exitX=1;exitY=0.885;exitDx=0;exitDy=0;exitPerimeter=0;labelBackgroundColor=default;fontFamily=Helvetica;fontSize=11;fontColor=default;endArrow=none;endFill=0;strokeColor=default;" parent="1" source="12" edge="1">
                    <mxGeometry relative="1" as="geometry">
                        <mxPoint x="505" y="410" as="targetPoint"/>
                    </mxGeometry>
                </mxCell>
                <mxCell id="12" value="" style="pointerEvents=1;verticalLabelPosition=bottom;shadow=0;dashed=0;align=center;html=1;verticalAlign=top;shape=mxgraph.electrical.electro-mechanical.2-way_switch;direction=east;" parent="1" vertex="1">
                    <mxGeometry x="430" y="234" width="75" height="26" as="geometry"/>
                </mxCell>
                <mxCell id="13" value="+" style="text;html=1;align=center;verticalAlign=middle;resizable=0;points=[];autosize=1;strokeColor=none;fillColor=none;" parent="1" vertex="1">
                    <mxGeometry x="640" y="280" width="20" height="20" as="geometry"/>
                </mxCell>
                <mxCell id="14" value="-" style="text;html=1;align=center;verticalAlign=middle;resizable=0;points=[];autosize=1;strokeColor=none;fillColor=none;" parent="1" vertex="1">
                    <mxGeometry x="610" y="170" width="20" height="20" as="geometry"/>
                </mxCell>
                <mxCell id="65" style="edgeStyle=none;shape=connector;rounded=1;html=1;exitX=0.7;exitY=0;exitDx=0;exitDy=0;exitPerimeter=0;labelBackgroundColor=default;fontFamily=Helvetica;fontSize=11;fontColor=default;endArrow=none;endFill=0;strokeColor=default;entryX=0;entryY=0.57;entryDx=0;entryDy=0;entryPerimeter=0;" parent="1" source="28" target="4" edge="1">
                    <mxGeometry relative="1" as="geometry">
                        <mxPoint x="110" y="300" as="targetPoint"/>
                    </mxGeometry>
                </mxCell>
                <mxCell id="28" value="" style="verticalLabelPosition=bottom;shadow=0;dashed=0;align=center;html=1;verticalAlign=top;shape=mxgraph.electrical.transistors.npn_transistor_1;direction=east;rotation=-180;flipV=1;" parent="1" vertex="1">
                    <mxGeometry x="200" y="310" width="100" height="100" as="geometry"/>
                </mxCell>
                <mxCell id="67" style="edgeStyle=none;shape=connector;rounded=1;html=1;exitX=0;exitY=0.5;exitDx=0;exitDy=0;exitPerimeter=0;entryX=0;entryY=0.5;entryDx=0;entryDy=0;entryPerimeter=0;labelBackgroundColor=default;fontFamily=Helvetica;fontSize=11;fontColor=default;endArrow=none;endFill=0;strokeColor=default;" parent="1" source="30" target="28" edge="1">
                    <mxGeometry relative="1" as="geometry"/>
                </mxCell>
                <mxCell id="68" style="edgeStyle=none;shape=connector;rounded=1;html=1;exitX=1;exitY=0.5;exitDx=0;exitDy=0;exitPerimeter=0;entryX=0;entryY=0.885;entryDx=0;entryDy=0;entryPerimeter=0;labelBackgroundColor=default;fontFamily=Helvetica;fontSize=11;fontColor=default;endArrow=none;endFill=0;strokeColor=default;" parent="1" source="30" target="12" edge="1">
                    <mxGeometry relative="1" as="geometry"/>
                </mxCell>
                <mxCell id="30" value="" style="pointerEvents=1;verticalLabelPosition=bottom;shadow=0;dashed=0;align=center;html=1;verticalAlign=top;shape=mxgraph.electrical.resistors.resistor_2;" parent="1" vertex="1">
                    <mxGeometry x="333" y="350" width="96" height="20" as="geometry"/>
                </mxCell>
                <mxCell id="32" value="&lt;span style=&quot;font-size: 11px&quot;&gt;4.7 K Ω&lt;/span&gt;" style="text;html=1;align=center;verticalAlign=middle;resizable=0;points=[];autosize=1;strokeColor=none;fillColor=none;" parent="1" vertex="1">
                    <mxGeometry x="340" y="320" width="50" height="20" as="geometry"/>
                </mxCell>
                <mxCell id="43" value="Input A" style="text;html=1;align=center;verticalAlign=middle;resizable=0;points=[];autosize=1;strokeColor=none;fillColor=none;fontSize=11;fontFamily=Helvetica;fontColor=default;" parent="1" vertex="1">
                    <mxGeometry x="490" y="180" width="50" height="20" as="geometry"/>
                </mxCell>
                <mxCell id="44" value="NPN Transistor" style="text;html=1;align=center;verticalAlign=middle;resizable=0;points=[];autosize=1;strokeColor=none;fillColor=none;fontSize=11;fontFamily=Helvetica;fontColor=default;" parent="1" vertex="1">
                    <mxGeometry x="200" y="280" width="90" height="20" as="geometry"/>
                </mxCell>
                <mxCell id="103" value="" style="shape=image;verticalLabelPosition=bottom;labelBackgroundColor=#ffffff;verticalAlign=top;aspect=fixed;imageAspect=0;image=data:image/png,iVBORw0KGgoAAAANSUhEUgAAAL4AAACVCAIAAABpfdc/AAAgAElEQVR4nO2deXAT1x3H32ql1X0ftixLPvEJxmAwYMAEgw0xOUlD0qY1OZi2aTtNp9dMp390Jp3JZGjTJpPppGmTNBzNkBCCQyCUYE7HNjYYOz4i4wPjQ7JuWbe00u72jzfVuAaMWYy53ucvP3m1+/bpu+/e7w9jGAYgEDcP505nAHGvgqSDYAl3hv/V19fPWz4Q9wRcLvehhx6SSCQAAGyGvg6GYSqVSigUzmPeEHcvsVgsFou1tbUVFBSAmWsdAMCf/vSnTZs2zUvGEHc7TU1NO3bsSCZvIB2VSmUwGG5zlhD3BhqNZmoSdZMRLEHSQbAESQfBEiQdBEuQdBAsQdJBsARJB8GSG8zrQBiGoSgKwzAOh4NhWPJDhmEwDJv6CU3TNE3DJIfDSR4PP7965hrDMBzHk2eYCk3TFEUlk1PPNgPwKjiOz+a+ZgO8TZjV5B/wb5qmZ87S9e56lvdyK7nlcK5dKdzwgNlzY+nEYrGenp5du3bl5eVt3rw5NzcXAEDTdHNz8+joqNFoXLt2LTzSarV+8cUX//jHP2Cyurr6mWeeWbp0KQCgoaHhs88+a2trm3pmqVRaWlr68ssvZ2dnEwQx9V9er7e1tfXVV1+NRqMAAJVKVV5e/pOf/CQlJYXH410vq263u7W1dWBgoK6uTiaTzYmABgcH29raxGJxRUXFkSNHFArF4sWLVSqV2Wxuamqqra3Ny8vjcq9RjCRJHj169NChQx0dHdPuesOGDd/73veysrLmUOIQp9N59uzZycnJbdu2SSSSq/UxOjra2dnpcDieeOIJrVZ7K9e6sXRomg4GgwMDA6OjoxkZGSkpKVKpFADg9/sdDodcLoeHffvtt83NzXa7ffv27UKhMJFIBIPBxsZGr9e7evXq3NzcRx99dPHixT6f79ChQzk5OUVFRWlpaSkpKRqNZloJjoyMtLS0tLS0bN68WaVSEQQRjUZ9Pt+XX365cePGjIyM65V4PB73er0WiyWRSMzVPiS1Wl1SUsLj8RiGcTgcFEVFo1GKogKBwPj4eCQSud6FcBwvKCjAMKysrMztdh8/fjwzM7OkpESr1WZlZalUqttR64jF4uLi4mg0yufzr3n+WCzmdrttNlsikbjFa82qwcIwjMfjJRKJvr4+o9G4aNGiqdliGIYkyfPnz9tstsLCwkceeUQoFFIU1d7e3tzc3NjYmJ+fbzQas7Oz4/H4xMSE2WxevXp1dXV1VlbW1dciSbK7u/ubb76RyWTbt2/X6/UEQbhcrra2tiNHjuTn58OKx+FwNDY2hkIhAIBara6oqJBKpf39/Z2dnZcuXTp9+vTatWslEonFYunu7vb5fBqNprCwMCsrK1lp0TTt9Xr7+/uNRqNGo6FpemJiYmhoqKysTKFQeL1eq9UqEolEIhGGYaFQyOVyXbx4USgUCoXC0tJSeJLBwcHx8fFAIKDX68vKymQyWfJBx3E8Pz8/Pz8/Go2OjIyMjY2Vl5dv2bJFr9cDAAYGBvr6+txut8/nKysrS09P93g8fX19Y2NjAACDwZCfn28ymWia7unpoSjK6/WOjo4CAAoLC/Pz8zUaTTQavXTpUl9fXyAQUCqVBQUF+fn5YEp7GggEurq6RkdH4/G4UqlctmwZQRBms/ns2bM+n+/ixYsrVqyQyWROp/PChQuTk5NisTg7O3vhwoU8Hu/y5csOh8Ptdns8nrKysoyMDLhaftPSwXFcJpPl5ubabLbu7u7s7OypJ0okEm63u7+/v7i4+KGHHhKJRAAALpdbUlISiUT27dt35coVqVSarJ9mxu/39/X1MQzzzDPPpKenwwpGLpcvWrSovb2dYZhIJOL1ek+fPv3OO+/4/f54PG4wGPh8fklJidlsbm9vv3LlyldffbVgwQIOh9PY2Hjo0CGHw6HX6x977LHa2lqj0Zjsflmt1kOHDq1Zs2b58uWxWKylpeXgwYO///3vhULh8PDwqVOncnNzVSpVR0dHIBDQarWtra00TSsUCp1OB3/O9vb28fHxoaGh7Oxs+MTDKvmGtLS0nD9/fnh4OBAIEARB03RXV9fhw4d7e3spisrJydm6detjjz2GYdjnn38eiUQmJiY6OjpisVhlZeX27duXL1/ucDgOHTp06tQpl8uVnp5eU1OTlpYWCAROnz7tcrlSU1NHRkYOHjx44cKFaDSalpaG43hqampPT8/Jkyfj8fjixYszMjJisVhTU9OHH37odDplMtmaNWskEklWVlZra2tra+vly5fdbvfPfvYztVrNUjpQCmvXru3o6PB4PCMjI8XFxcl/kSQ5MjLC4XBUKpVCoZj6FaFQSBDE4OBgZmbmLKUzMTHh9/vFYrHBYEg+wTweLz09/Xe/+x2Hw/F6vRcvXqyvr3/ttdcWLlxosVjOnj177NixgoKChx9+WCgUdnV1/epXv+LxeHv37rVarX/84x8XLVr0ySef9Pb2Hj16dPv27bAy53K5arW6uLh4cnIyEomEw+FAIJCamgr/jkQiAIDCwkK/3w8ASEtLq6mp8Xg8Go2moqIiNTW1sbHxyy+//M1vfrNjxw6v17tr166vvvpKLpcXFhbOskj5fP7DDz9cV1cnEok+/fTToaGh2tra999/3+/3v/3221euXIE9BACA3++vrq7euXPnpUuX/vrXv3Z1dSmVyvHxcbvd/pe//CUrK8tsNh8/fnxsbIzP5wMAYJVTX1+/dOnSl19+WaFQdHd3d3Z2pqenb926VavVWq3WHTt2KBSKhoaG+vr6p59+uqampru7++zZs3v37v35z39O0zRBEBs3bnzhhRdEItE1ewizlQ6GYQKBYMmSJV1dXV988YXRaJw6/EkOPf7v1FyuRCJRq9U31agzDCOTyUQiESwFh8Nx+PDho0eP2mw2AMCPf/zjdevWrV69esGCBQaDQSwWh0IhrVYLKyocx3Ec53A4XC7Xbrf7fD6xWGwymQQCQVlZmcvlCgQCsViMIAiYJT6fr9Fozp07V1BQgOM4n89fvny53W4XCoWBQIDH40ElwVvjcDj4/+BwOARBLF68OC8vLyUlhSCI4uJin893Ux0sWDhisZjD4VRVVVVUVAgEAj6fL5FItFrt1O6a0WjMzMxUKpW5ubmw7UiOZLlcrkgkWrhwocFgUKlUbrc7WYw0TcMnRKFQLF26NC8vT6FQWCwWLpcL7yIajZIkqVKpVq5cqVKpCgoKLBZLU1OT3W4nSVIsFsPK5npjsdlKBxZfbm6u3+/v6Ojo6emBY5+Zj8dxPPk7zR6SJDkcDiwaoVBYWFhI07TFYjlz5kw4HIafX758ee/evZFIJBgMhkIhpVI57SSxWMxisfT29trtdj6fHwwGnU5nXl5eMBhM1r1CodBgMMAWEMfxRCKRn58/PDzsdDqj0ahAIJBIJNfrknO53IyMDK1WKxAICIKQSqWwfpo9UqlUqVTCH4YgiM7OztbWVrfbTVFUb29vsjsFANBoNGq1GtbiIpGIy+VKpdLs7Ozs7Oxdu3bF4/HMzMyNGzfq9Xp4NgzDxGJxVVWV2Wx+9913cRzPzs5++OGH4dOYJBwOB4NBhmEUCgWXy1UqlVqtFsOwWCxG07RUKlWpVDOM4W9COgAApVKZn5/vdDrPnDkjlUpJkgQAcDgcmUzGMEw0GoXPNDyYoqhIJBIKhWQy2Qwj6mmIxWKapicnJycnJ0UikVQqXbVqVXl5ucPhgKcKh8MTExP/+c9/HA4HAIAkyUQicbV0AABQDW63G06ipKWl5eXl8Xi8pJT5fH5KSopcLvf7/XCOSqfT9fX1WSwWWOVwudzr6Z7D4UilUoFAwHqCRCAQwH4hRVFms7mtra23txcAQNM07MMlj4R986nfFYlEqampq1atOnDggM1mI0lSIpEoFAr4i2AYJhQKKyoq/H7/2NiY2+2Ox+NarbasrCw56waumoeDNWtywonP58PsXY+bkw4AwGAwLFiw4Pjx41KpFE4MEASRnp7O5/MdDofVaoX9U4ZhvF7v+Pi4z+fLzs6eZecRAKDT6TQazeXLl81mM9zeimEYHOrDAnW73UNDQxMTE6+++mpOTo7Vam1ubm5paZl+Y1xuXl5eSUnJc889J5VKYQ+Gw+EoFIqpgyCZTGYwGCYnJ2malslkWq2WpunBwUGTybR06dLbMX6eBsMw8Xi8ra0Nw7Af/ehH69atCwQC77777szfisfjiUSioKDg9ddfZximvb39s88+y83NhbuxGIZJJBLxeLy2tnbr1q3BYLCzs/PYsWNKpXLqMwafTIIgIpEI1Kvb7SZJ8nqTtNO46SdGJpMVFBTU1NQ0NjYODg4CAHAcl8vlS5cuvXTp0ueffx4IBGBxNDU1NTY2ZmVlZWRkzH6Ds0QiKS0t5fF4f//734eGhmCz6HK5Tpw4UV9fPzExMfXgeDw+ODh47ty5q8+j1+sZhhkZGRkeHqZp+vz582+99da7777r9/unPnkYhsnl8r6+vpGREaVSKZfLxWIxRVEEQaSlpd1s4dw6iURiaGjoxIkTPT09MxxmsVgOHz78wQcfwALBcRzWOrB2TyQSNptt586dp0+f9nq94H/bzKVS6dTZS6FQyOPxnE5na2ur3+8fGBgYHBxMS0tLTU2dNkN7TW661oGZqKqqunDhQvICGIatWLFCLBafPn1669atXC6XYZjCwsI1a9aUl5eLxeLZP74YhhUVFQmFwosXL7755ptOp5MkSYFAkJaW9uc//3nFihVKpZKmaaFQ+Itf/EKr1ebm5mZlZcG+l0wm43K5w8PDO3furKurW7NmTUtLy2uvveb3+3k8Xnl5eVVVFeyWJi8H+wEtLS0CgcBkMsHGV6VSwYL+v5LiclNTUz/55JPh4eHq6uqbLbcZ7pcgiCVLlnzyySe//e1vU1NTKysrCwsLVSqV1+vNzMy85rc0Gg2Px7t48eIrr7wSDAYNBsOGDRtMJlMgEIA3pVAo1qxZs3///jfeeEMul5tMpieeeMJoNIZCIZqm9+zZIxQKH3nkkSVLlvj9/gMHDuzZs4fP5y9atGjbtm1yuXw209w3lg6PxzOZTFu3bjWZTLCfRRCE0Wj8/ve/H4/HTSZT8mZKS0vh6AZ+UlRUtGzZsuQBAAAOhyOXy5966qn09PRr9k4gsGJTKBQYhjkcDtjbz8rKWrdunUwmwzBswYIF27Zt6+vrEwgEubm5er0+JydHq9VKJJJFixbBSkWlUkkkEh6Px+fzPR4PrBeLioqm9bpwHDeZTJs2bYLqxDBs4cKFaWlpKpUK3khqampFRQWfz5dKpeXl5bFYTKfT6fV6Ho9XW1sL50ukUumSJUtyc3N1Ot01ipjL1Wg0jz/+uMFgSMpxyZIlsVgsJSUFFkthYeGmTZvgYK20tHTFihUCgUCtVgsEgg0bNsCGhsPhiESimpoarVYLZ+Grq6vhlKDBYCgvL4d9yvLy8nA4rFarV6xYEQqFrly5IhQKTSZTcXGxXC4nCKKsrGz79u0wqVKp1q1bR9O0y+WSSqXFxcWFhYVw8BiJRG6wUsFcHwDAwYMHZzgA8UBx4sQJqVRqNpthEm26QLAESQfBEiQdBEuQdBAsQdJBsARJB8ESJB0ES5B0ECxB0kGwBEkHwRIkHQRLkHQQLEHSQbAESQfBEiQdBEuQdBAsQdJBsARJB8ESJB0ES5B0ECxB0kGwBEkHwRIkHQRLbvwKH0VRfr9/dHTUZDJNe/P0FolEIuPj4wKBQKVSicXiax5jsVj8fj98CW1mYwBoGYZhWGpq6g3dEYLB4OXLl6FPFgAgMzPTaDTO7ABE03QkEhkbG5PJZDqdjkU5TE5O+nw+AIDRaLx1F8g7zo1vgCTJb7/99s033zSbzeFweA6v7XK5Pv7444aGhmlvkkMYhqEoqqGh4f333z9y5Eg0GmWu717DMEwoFDp27Njx48dnziTDMLFYrK+v75133nnppZd27Njx0ksvvf/++729vdBK53okEgmr1bpr166zZ8/OfOT1GBgYOHr06NGjR6daE9273L3aTyQSo6OjNpstFApFo1Gn0znVZoA10Wj05MmT//73v4uKik6dOtXW1vb111/n5OQcO3bsyJEjt37+B4ebq3UTiURnZ+fFixclEsnx48cnJyezs7Orq6urqqo8Hk9ra6vNZhMKhYcPH1apVBs3bqysrJTJZFeuXPnmm28MBsOyZcsAAB0dHXa7ncPh2O32ffv2CYVCt9v9+OOPL1iwYOq1SJIcGBhQqVQCgYDH47W2tup0ulsMCQjtdlpaWgoKClauXAl9aymKqqqqamxs7O/vt1qtCoWitbU1FAotXLgwMzMzHA5//fXXPp8vMzPz888/b2ho6Ovri8fj69evP3HihEKhmJiY6O7u9vv9zz77bHl5OY7jAwMDvb29W7Zs0Wq1drvdbDZ7PJ6cnJyDBw8eO3ZMJpPJZLLq6upb9J6949xcrUPTtM1ma29vv3DhglwuhwZjDQ0Nbrfb7/d/8803Z86cGRkZycjIYBjGbDZ3dXWRJOn1eqHfEUVR0Ch0YGDA6/VCTwmtVqtQKAQCwbQLhcPhgYEBnU63ZMmSlJSUgYGBYDB4i1V9NBq12Wxut3vBggXZ2dmwv4LjeFZWVkpKis/nGxoaikQiV65c6e/vh/2SeDw+NDTU399PkqRarYZ5lsvlsVisu7v71KlTVqtVrVaLRKKzZ88ODg663W6LxdLZ2RkKhRiGCQQCV65cMZvNNE0rlUqNRqNUKpNeCPc0bG4AeuH+8Ic/ZBjm8OHDTU1NTqcTx/FIJBKPx7OysrZu3Qpl1NnZWVxcfM2GRqvVFhYW1tTUGAyGtWvXGo3Gqf9NJBJ+v99ms5WWli5YsIAgiI6ODrfbLZFIbqXiicViHo+HIAiZTDZVrDweTywW83g8i8WSl5d39RdxHNdoNLW1tQ6HY/HixZWVleFwGMMwv9+/cuXKmpoah8Px5ptvDg0NXa//q9frH3roIeh0sWHDhtnbnN21sOnriESikpISmUym0WhMJlNqamry85ycnJUrV3K5XOjt6/P5XC4Xiz5KJBJxOBzQXg4iFArHxsbmtp+eBLrzzdJjdSpLly4tLi5WqVTQhSQcDkObugcBNrUOQRDXHAALBAL4G9y6j5rP5+vo6Pjoo48OHDhAEAS0yKMoKjs7W61W3+LJ55CrHZweHNg3WMlwG0ni8Xg0GoWjaOgtGovFpn2XYRi32z2z+2ksFhsZGTGbzdu3bzcajdD73e/3Dw0NjY+P63Q61r+WQCDQarUkSUKv5KT6o9Go2+0OBoMZGRnTHolwOBwKha6+EQgc/dE0TZKkz+ebahsNgfao7HJ7lzOXnbVIJOJyuSYmJlJSUqDhqFAoFIvFPp/P6/V6PJ5QKIRh2PDw8MwBCmD4BZ/P98ILL+Tn54vF4ng8brVa33jjjfHx8czMTNbSgZalaWlpvb290IqLIAhoNjs8PAwbXOhcFgqFHA4HwzB2u32GNshqtTqdzoyMDK/Xa7fbdTqdRCKx2+02m83v94fDYZfLNTo6Oi1W7/3BXEqHoiiPx9PT0xOPx/v7+zEMy8vLU6vVgUCAJMn+/v7m5ma5XG632+FvD230LBbLxMSEXq9PTijD6AQymSwtLQ3+kDiOC4VCjUYzPj4+Pj6eDABw03fL5apUqoqKihMnTjQ1NYXDYbFYDANcRKPRkpISnU5HkqRcLh8YGGhtbZXL5cPDwx6PB7rT4TjOMIzL5bLZbNAY1ul09vb2xmIxh8NB03R6errBYPB6vZOTk62trV6vd2hoCEaogFcnSdLhcFgsFr1eP83F+J5jtt1k7CrA/+zZk0k45jx27Nj69ev/9re/abXa2tpaGDlhzZo1nZ2dL7zwws6dO00mEyxKWAe89957e/bsgZbBkLGxMa/XW1RUpFQq4SCWw+FIJJKFCxcODg729PTAqCLsEAgE69evf+6558xm84YNG1auXFlZWTk8PLxp06YtW7YAAAiCqKioSEtL27Nnz8qVK8+dOyeRSDQaDTRCJEnyyJEje/fuDQaDNE3L5fL9+/fX1NT89Kc/Xb9+fXl5eV5eXllZ2cqVK//whz+88sorFy5cSEZjkcvlTqfzn//85wcffADN5+9ppvdX/u9/GHbw4MHHHnsMVrwajUYgEIRCoWAwKJfL4WPn9/th6A2bzVZfXx8MBh999NFEIiESibRarVKphNWDx+NxuVzhcFgikcDaRSwWi0Qin89nsVigYXGy1vH7/aFQCMdxaB4OP6Rp2ufzQe9+lUo1rdZhGMbn8+3fvx/H8aeeeuqGYyU4weNyuWASmjUnHaZhcCSHwxGNRqFTJI/Hg/cyMTEBjdwZhnn77beLi4uzs7NhFAXYksKqxeVyOZ1OGOpAIBDQNA2D37hcLliSWq12NgazdxUnT5584okn2traCgoKwGwaLPjEJ83x5XL51B9GoVDAviGczxCJRBkZGXK5fNogC9rJXn1ytVp99YgJzrdenY1pjtG3gkAgyMzMvJ61LI/H0+l017QjhfNPFEXZ7XYAgFAozMzMnOrSCgCAnsvXtF02GAwGg2EObuAuYM76OrBhghFN5uqcswd2m/Lz8+Ef83A5kUi0fPnyzMzMq6P9PCDMmXTUavUcGlGzQCQSVVZWzs+1YMCAbdu2zc/l7k7u3pVzxF0Okg6CJUg6CJYg6SBYgqSDYAmSDoIlSDoIliDpIFhy4ylBj8czNjY2Pj4OANDr9VKpNBqNwjeYYMzVWCw2OjrKMIxOp1MoFPF4fHR0lKIojUajUqngiw2JRAKuOdA0PTo6SpIkjG/LMMzo6GgsFoNx5wEAY2NjkUhEJpPBzYfj4+Nw5QvO61ut1mAwCKOgAwAmJiYCgYBQKITrAzBANYynBwBwOp1er5cgCPgOl8vl8ng8MDIcjuNwWQ2GUuPxeF6v1+l0cjgck8lEEITP54NLDTDWNdztCgCA+4eCwaDVagUAJANmWywWAEBaWppEIoGvawEAUlNTZTJZsrh0Op3JZIKLYvcBN5bOwMDA3r17P/74YwDAo48+WlRUZLFY9u7dCwDYvHnz4sWL7Xb77t27aZreuHFjWVkZjBcfi8UqKytXrVoVCAR2794dDAYrKirWrl0bjUZ3797t9XqXL19eVVVFUdTu3bsdDkdpaemmTZsAAHv27LFarcXFxY888ggAYN++fSMjI3l5eU8++SQA4MCBA4ODg1lZWXAm99ChQ2azOT09/bnnngMAHD16tKurKzU1ta6uDsOwhoaG9vZ2tVpdV1dHEMSZM2fOnTsnk8nq6urEYnFzc3NjY6NQKKyrq1MoFOfPnz958iSXy62rq9NqtR0dHV999RUAoK6uTq/X9/T0wFdtvvvd75pMpkuXLtXX1wMAvvOd7+Tk5Fy+fHn//v0AgMcff7ygoGBsbOyjjz4CANTW1i5atMhms+3atQsAUF1d/YMf/GDz5s2356ecb268cr558+ZgMBgMBgEAcO83RVEwxqRIJIJbpWBSKBTy+XyapmHkWJiEbwXQNC0QCOCCM0zy+Xy4QT0QCFAUlUwGg8FEIkEQBFzHhkm47RwAEAqF4vF4MhkOh0mShAvUySSMqAgAiEQisVgsmYQ7GGGQaQzDYBLDMKlUyuFwYrFYJBJJJkmShPugpVIpjuPJpEQi4XK58XgcbvyASRgQOVk+yeS08hGJRBKJZOYI0HczN71yDn/yafvcpi13T0tOWySfttw9LTltU+btS84t096imlY+MxfX/QHqJiNYgqSDYAmSDoIlSDoIliDpIFiCpINgCZIOgiVIOgiWIOkgWDJPBkGTk5NtbW3Nzc1+v3/16tUVFRV6vX4Oz0/TdEtLi0gkMhqNt+MF70Qi4XQ6Gxoali1blpGRce8uJswht106DMPE4/GLFy9euHBhfHycJEm4BkkQxBxOz9M03dPTo1KpoOvPXJ0WAhf/z5w5U19fr1KpUlJSkHTAPDRYDMP4/f6TJ0/iOP7rX//6rbfeUigUXV1d/f39M6y83j3E43GLxdLU1HT48GG73R6Px+90ju4Wbrt0aJr2+/1cLlen0+n1epFIVFRU5PP54K6d2331W8dms7333nunT5/esmVLTk7ONM/DB5nb3mAlpSMWi/l8Po7jKSkp0AqJJMm73yhEq9U+//zzoVAoHA6fOXPmTmfnLmI+pONyueLxOI7j0MOAz+dTFBWPx+fEB/l2IxAIcnJyYrHY4ODgrRvd3U/MR18nkUjcE90axE1x26UDbXIIgkiqh6IoDofD4XDQQ3xPc9ulw+FwZDIZRVFw9ydN0w6Hg8/nq1Sqe86bCDGV2y4dDMPkcjmcUrPb7ZFIpK+vTyaTGY1GJJ17mtveTYbbyJcuXWo2mz/88EMMw0iSXL16dW5u7n0Q2OdBZj5qHaFQWFlZmZuba7Vau7u7c3JyFi9efE2/tLsW6IpXUlKi1WrvA4/+OWGe1rDUavW2bdvuXRssHo+XkZHxy1/+8k5n5C4CNRkIltzzoXUgOI5v3LiRIIi5sjhF3JD7RDoYhuXk5NzpXDxYoAYLwZJ5rXVgJFgMw27HVDIM0Hc7zkzTNEVR8Pw8Hg/Ng0PmtdaxWCz/+te/Dh8+fM0Qw7cCRVGfffbZiRMnoJnL3GI2m19//fXy8vLy8vKPP/74wQmWNjPzJ52BgYFPP/30ww8/hHsF5/bkDMN4PB6fzzfnZx4fH29ubo5EIi+++OKzzz7b29t7/vz5ycnJub3Kvch8SIeiqJ6entbW1suXL99zM8hjY2MOh8NoNL744ovPP/88TdODg4P3QVyZW2c+9iZTFPXtt9+63e78/PyUlJRkBJp7ApfLJZVKTSaTVCrl8/mpqamRSMRqtUKPmQeZ2y4dGO/j6aefZhhmeHh43759t/uKc4vT6YQRjTAM4/P5SqXS7/d7PJ47na87zzyNsKYGYLtXYBiGJEmPx97T32QAAAGESURBVDO1kb23buG2cp9MCd4mcByHgdDudEbuRu6xTut8gmEYl8vVaDQ4jsdiMdhpg26E6L0IgKRzQzQaTSwWczqdiUQCBrIkCOK+jCB8s6AG6wZoNJrJyclYLDY5Oenz+SYmJvLy8tLT0+90vu48qNa5Abm5uatWrbLb7U899VRdXZ3BYFizZs00+9IHk3mtdVQq1fr166VS6T20NUIikZSWlnI4HOiyvnHjxpycnLv/zcN5YF6lo1AoKioq5vOKc4Jer9fr9dBMHpHkPmmwMAyDRuhcLuq9zRP3SUHjOP7kk09yOBy053zeuE+kAwBAnjfzzH3SYCHmHyQdBEuQdBAsQdJBsARJB8ESJB0ES5B0ECxB0kGwBEkHwRIkHQRLkHQQLEHSQbAESQfBEiQdBEuQdBAsQdJBsARJB8ESJB0ES5B0ECxB0kGw5Abb2tva2uYnH4i7n+7u7v9LM9fnDuUQcfcilUrNZjOUB4YkgmAH6usgWIKkg2AJkg6CJUg6CJb8F3BmyRljOpUTAAAAAElFTkSuQmCC;" vertex="1" parent="1">
                    <mxGeometry x="372.5" y="436" width="190" height="149" as="geometry"/>
                </mxCell>
            </root>
        </mxGraphModel>
    </diagram>
</mxfile>